<svg width="1024" height="768" viewBox="0 0 1024 768" fill="none" xmlns="http://www.w3.org/2000/svg">
<g clip-path="url(#clip0_56_189)">
<path d="M329.493 119.506H327.404V228.798H329.493V119.506Z" fill="#3F3D56"/>
<path d="M329.493 261.33H327.404V357.496H329.493V261.33Z" fill="#3F3D56"/>
<path d="M486.149 372.818H324.271V374.86H486.149V372.818Z" fill="#3F3D56"/>
<path d="M257.432 400.396H255.343V487.217H257.432V400.396Z" fill="#3F3D56"/>
<path d="M519.569 502.538H274.141V504.581H519.569V502.538Z" fill="#3F3D56"/>
<path d="M724.266 50.0493H722.177V153.213H724.266V50.0493Z" fill="#3F3D56"/>
<path d="M706.511 169.555H552.953V171.598H706.511V169.555Z" fill="#3F3D56"/>
<path d="M537.323 185.898H535.234V323.79H537.323V185.898Z" fill="#3F3D56"/>
<path d="M328.449 262.504C324.937 262.504 321.505 261.486 318.585 259.578C315.665 257.67 313.39 254.958 312.046 251.785C310.702 248.612 310.35 245.121 311.035 241.753C311.721 238.384 313.411 235.29 315.894 232.862C318.377 230.434 321.541 228.78 324.985 228.11C328.429 227.44 331.999 227.784 335.243 229.098C338.487 230.412 341.26 232.638 343.211 235.493C345.162 238.349 346.203 241.706 346.203 245.14C346.198 249.744 344.326 254.158 340.997 257.413C337.669 260.668 333.156 262.499 328.449 262.504V262.504ZM328.449 229.819C325.35 229.819 322.322 230.718 319.745 232.401C317.169 234.085 315.161 236.478 313.976 239.277C312.79 242.077 312.48 245.157 313.084 248.129C313.689 251.101 315.181 253.831 317.371 255.974C319.562 258.117 322.354 259.576 325.392 260.167C328.431 260.758 331.581 260.455 334.444 259.295C337.306 258.136 339.753 256.172 341.474 253.652C343.195 251.133 344.114 248.171 344.114 245.14C344.11 241.078 342.458 237.184 339.521 234.312C336.584 231.439 332.602 229.824 328.449 229.819V229.819Z" fill="#3F3D56"/>
<path d="M257.432 520.923C253.92 520.923 250.487 519.905 247.568 517.997C244.648 516.089 242.373 513.377 241.029 510.204C239.685 507.031 239.333 503.54 240.018 500.172C240.703 496.803 242.394 493.709 244.877 491.281C247.36 488.853 250.524 487.199 253.968 486.529C257.412 485.859 260.982 486.203 264.226 487.517C267.47 488.831 270.243 491.057 272.194 493.912C274.145 496.768 275.186 500.125 275.186 503.559C275.181 508.163 273.308 512.577 269.98 515.832C266.652 519.087 262.139 520.918 257.432 520.923V520.923ZM257.432 488.238C254.333 488.238 251.304 489.137 248.728 490.82C246.152 492.504 244.144 494.897 242.958 497.696C241.773 500.496 241.463 503.576 242.067 506.548C242.671 509.52 244.163 512.25 246.354 514.393C248.545 516.536 251.337 517.995 254.375 518.586C257.414 519.177 260.564 518.874 263.427 517.714C266.289 516.555 268.736 514.591 270.457 512.071C272.178 509.552 273.097 506.59 273.097 503.559C273.093 499.497 271.441 495.603 268.504 492.731C265.567 489.858 261.585 488.243 257.432 488.238V488.238Z" fill="#3F3D56"/>
<path d="M329.493 390.182C338.722 390.182 346.203 382.865 346.203 373.839C346.203 364.813 338.722 357.497 329.493 357.497C320.264 357.497 312.783 364.813 312.783 373.839C312.783 382.865 320.264 390.182 329.493 390.182Z" fill="#6C63FF"/>
<path d="M934.185 244.119H760.819V246.162H934.185V244.119Z" fill="#3F3D56"/>
<path d="M745.153 261.33H743.064V357.496H745.153V261.33Z" fill="#3F3D56"/>
<path d="M726.354 372.818H587.453V374.86H726.354V372.818Z" fill="#3F3D56"/>
<path d="M975.959 382.01H831.836V384.053H975.959V382.01Z" fill="#3F3D56"/>
<path d="M817.215 400.396H815.126V487.217H817.215V400.396Z" fill="#3F3D56"/>
<path d="M798.416 502.538H552.989V504.581H798.416V502.538Z" fill="#3F3D56"/>
<path d="M537.323 423.889H535.234V487.217H537.323V423.889Z" fill="#3F3D56"/>
<path d="M744.108 261.483C753.337 261.483 760.818 254.166 760.818 245.141C760.818 236.115 753.337 228.798 744.108 228.798C734.88 228.798 727.398 236.115 727.398 245.141C727.398 254.166 734.88 261.483 744.108 261.483Z" fill="#6C63FF"/>
<path d="M723.221 186.92C719.71 186.92 716.277 185.901 713.357 183.993C710.438 182.085 708.162 179.373 706.818 176.2C705.474 173.027 705.123 169.536 705.808 166.168C706.493 162.8 708.184 159.706 710.667 157.277C713.15 154.849 716.313 153.195 719.757 152.525C723.201 151.855 726.771 152.199 730.015 153.513C733.26 154.827 736.032 157.053 737.983 159.908C739.934 162.764 740.975 166.121 740.975 169.555C740.97 174.159 739.098 178.573 735.769 181.828C732.441 185.083 727.928 186.914 723.221 186.92V186.92ZM723.221 154.234C720.123 154.234 717.094 155.133 714.518 156.816C711.942 158.5 709.934 160.893 708.748 163.692C707.562 166.492 707.252 169.572 707.857 172.544C708.461 175.516 709.953 178.246 712.144 180.389C714.335 182.532 717.126 183.991 720.165 184.582C723.204 185.173 726.354 184.87 729.216 183.71C732.079 182.551 734.525 180.587 736.247 178.067C737.968 175.548 738.887 172.586 738.887 169.555C738.882 165.493 737.23 161.599 734.293 158.727C731.356 155.854 727.374 154.239 723.221 154.234V154.234Z" fill="#3F3D56"/>
<path d="M536.279 186.92C532.767 186.92 529.335 185.901 526.415 183.993C523.495 182.085 521.22 179.373 519.876 176.2C518.532 173.027 518.181 169.536 518.866 166.168C519.551 162.8 521.242 159.706 523.725 157.277C526.208 154.849 529.371 153.195 532.815 152.525C536.259 151.855 539.829 152.199 543.073 153.513C546.317 154.827 549.09 157.053 551.041 159.908C552.992 162.764 554.033 166.121 554.033 169.555C554.028 174.159 552.156 178.573 548.827 181.828C545.499 185.083 540.986 186.914 536.279 186.92V186.92ZM536.279 154.234C533.18 154.234 530.152 155.133 527.575 156.816C524.999 158.5 522.991 160.893 521.806 163.692C520.62 166.492 520.31 169.572 520.914 172.544C521.519 175.516 523.011 178.246 525.202 180.389C527.392 182.532 530.184 183.991 533.223 184.582C536.261 185.173 539.411 184.87 542.274 183.71C545.136 182.551 547.583 180.587 549.304 178.067C551.026 175.548 551.944 172.586 551.944 169.555C551.94 165.493 550.288 161.599 547.351 158.727C544.414 155.854 540.432 154.239 536.279 154.234V154.234Z" fill="#3F3D56"/>
<path d="M815.126 401.417C811.614 401.417 808.182 400.399 805.262 398.491C802.342 396.583 800.067 393.871 798.723 390.698C797.379 387.525 797.028 384.034 797.713 380.666C798.398 377.297 800.089 374.203 802.572 371.775C805.055 369.347 808.218 367.693 811.662 367.023C815.106 366.353 818.676 366.697 821.92 368.011C825.164 369.325 827.937 371.551 829.888 374.406C831.839 377.262 832.88 380.619 832.88 384.053C832.875 388.657 831.003 393.071 827.674 396.326C824.346 399.581 819.833 401.412 815.126 401.417V401.417ZM815.126 368.732C812.028 368.732 808.999 369.631 806.423 371.314C803.846 372.998 801.839 375.391 800.653 378.19C799.467 380.99 799.157 384.07 799.761 387.042C800.366 390.014 801.858 392.744 804.049 394.887C806.24 397.03 809.031 398.489 812.07 399.08C815.109 399.671 818.258 399.368 821.121 398.208C823.983 397.049 826.43 395.085 828.151 392.565C829.873 390.046 830.792 387.084 830.792 384.053C830.787 379.991 829.135 376.097 826.198 373.225C823.261 370.352 819.279 368.737 815.126 368.732V368.732Z" fill="#3F3D56"/>
<path d="M815.125 519.902C824.354 519.902 831.835 512.585 831.835 503.559C831.835 494.534 824.354 487.217 815.125 487.217C805.897 487.217 798.416 494.534 798.416 503.559C798.416 512.585 805.897 519.902 815.125 519.902Z" fill="#6C63FF"/>
<path d="M536.279 520.923C532.767 520.923 529.335 519.905 526.415 517.997C523.495 516.089 521.22 513.377 519.876 510.204C518.532 507.031 518.181 503.54 518.866 500.172C519.551 496.803 521.242 493.709 523.725 491.281C526.208 488.853 529.371 487.199 532.815 486.529C536.259 485.859 539.829 486.203 543.073 487.517C546.317 488.831 549.09 491.057 551.041 493.912C552.992 496.768 554.033 500.125 554.033 503.559C554.028 508.163 552.156 512.577 548.827 515.832C545.499 519.087 540.986 520.918 536.279 520.923V520.923ZM536.279 488.238C533.18 488.238 530.152 489.137 527.575 490.82C524.999 492.504 522.991 494.897 521.806 497.696C520.62 500.496 520.31 503.576 520.914 506.548C521.519 509.52 523.011 512.25 525.202 514.393C527.392 516.536 530.184 517.995 533.223 518.586C536.261 519.177 539.411 518.874 542.274 517.714C545.136 516.555 547.583 514.591 549.304 512.071C551.026 509.552 551.944 506.59 551.944 503.559C551.94 499.497 550.288 495.603 547.351 492.731C544.414 489.858 540.432 488.243 536.279 488.238V488.238Z" fill="#3F3D56"/>
<path d="M743.064 391.203C739.553 391.203 736.12 390.185 733.201 388.277C730.281 386.369 728.005 383.657 726.662 380.484C725.318 377.311 724.966 373.82 725.651 370.452C726.336 367.083 728.027 363.989 730.51 361.561C732.993 359.132 736.157 357.479 739.601 356.809C743.045 356.139 746.614 356.483 749.859 357.797C753.103 359.111 755.876 361.337 757.827 364.192C759.777 367.048 760.819 370.405 760.819 373.839C760.813 378.443 758.941 382.856 755.613 386.112C752.284 389.367 747.772 391.198 743.064 391.203V391.203ZM743.064 358.518C739.966 358.518 736.937 359.416 734.361 361.1C731.785 362.783 729.777 365.176 728.591 367.976C727.406 370.776 727.095 373.856 727.7 376.828C728.304 379.8 729.796 382.53 731.987 384.673C734.178 386.816 736.969 388.275 740.008 388.866C743.047 389.457 746.197 389.154 749.059 387.994C751.922 386.835 754.368 384.871 756.09 382.351C757.811 379.832 758.73 376.869 758.73 373.839C758.725 369.777 757.073 365.883 754.137 363.01C751.2 360.138 747.218 358.522 743.064 358.518V358.518Z" fill="#3F3D56"/>
<path d="M257.431 349.325C253.3 349.325 249.262 350.523 245.827 352.768C242.392 355.013 239.715 358.203 238.134 361.936C236.553 365.669 236.139 369.776 236.945 373.739C237.751 377.702 239.74 381.342 242.662 384.199C245.583 387.056 249.304 389.001 253.356 389.789C257.408 390.578 261.608 390.173 265.424 388.627C269.241 387.081 272.503 384.462 274.798 381.103C277.094 377.744 278.319 373.794 278.319 369.754C278.302 364.341 276.097 359.154 272.183 355.326C268.269 351.498 262.966 349.341 257.431 349.325V349.325ZM257.431 355.454C258.67 355.454 259.882 355.813 260.912 356.487C261.943 357.16 262.746 358.117 263.22 359.237C263.695 360.357 263.819 361.589 263.577 362.778C263.335 363.967 262.738 365.059 261.862 365.916C260.986 366.773 259.869 367.357 258.654 367.593C257.438 367.829 256.178 367.708 255.033 367.244C253.888 366.78 252.909 365.995 252.221 364.987C251.532 363.979 251.165 362.794 251.165 361.582C251.17 359.959 251.832 358.403 253.006 357.255C254.18 356.107 255.771 355.459 257.431 355.454V355.454ZM257.431 384.957C254.956 384.946 252.52 384.344 250.337 383.205C248.153 382.065 246.286 380.421 244.899 378.416C244.999 374.33 253.254 372.081 257.431 372.081C261.609 372.081 269.863 374.33 269.964 378.416C268.575 380.42 266.708 382.062 264.524 383.202C262.341 384.341 259.906 384.944 257.431 384.957V384.957Z" fill="#3F3D56"/>
<path d="M329.493 70.4779C325.362 70.4779 321.323 71.676 317.888 73.9207C314.454 76.1654 311.776 79.3559 310.195 83.0887C308.615 86.8215 308.201 90.9289 309.007 94.8917C309.813 98.8544 311.802 102.494 314.723 105.351C317.644 108.208 321.366 110.154 325.418 110.942C329.47 111.73 333.669 111.326 337.486 109.78C341.303 108.233 344.565 105.615 346.86 102.256C349.155 98.8962 350.38 94.9466 350.38 90.9063C350.364 85.4932 348.158 80.3064 344.245 76.4787C340.331 72.6511 335.028 70.4937 329.493 70.4779V70.4779ZM329.493 76.6064C330.732 76.6064 331.944 76.9659 332.974 77.6393C334.005 78.3127 334.808 79.2698 335.282 80.3897C335.756 81.5095 335.88 82.7417 335.639 83.9305C335.397 85.1194 334.8 86.2114 333.924 87.0684C333.047 87.9255 331.931 88.5092 330.715 88.7457C329.5 88.9822 328.24 88.8608 327.095 88.3969C325.95 87.9331 324.971 87.1476 324.283 86.1397C323.594 85.1319 323.227 83.947 323.227 82.7349C323.232 81.1112 323.894 79.5556 325.068 78.4074C326.242 77.2593 327.833 76.6118 329.493 76.6064V76.6064ZM329.493 106.11C327.017 106.099 324.582 105.497 322.398 104.357C320.214 103.217 318.348 101.574 316.96 99.5687C317.061 95.483 325.315 93.2339 329.493 93.2339C333.67 93.2339 341.925 95.483 342.025 99.5687C340.636 101.572 338.769 103.215 336.586 104.354C334.402 105.494 331.968 106.097 329.493 106.11V106.11Z" fill="#3F3D56"/>
<path d="M723.221 0C719.09 0 715.051 1.19811 711.616 3.44281C708.182 5.68751 705.504 8.87798 703.923 12.6108C702.343 16.3436 701.929 20.451 702.735 24.4138C703.541 28.3765 705.53 32.0165 708.451 34.8734C711.372 37.7304 715.094 39.676 719.146 40.4642C723.198 41.2525 727.398 40.8479 731.214 39.3017C735.031 37.7556 738.293 35.1372 740.588 31.7778C742.883 28.4183 744.108 24.4687 744.108 20.4284C744.092 15.0153 741.886 9.82847 737.973 6.00084C734.059 2.1732 728.756 0.0158447 723.221 0V0ZM723.221 6.12851C724.46 6.12851 725.672 6.48795 726.702 7.16136C727.733 7.83477 728.536 8.79191 729.01 9.91175C729.484 11.0316 729.609 12.2638 729.367 13.4526C729.125 14.6415 728.528 15.7335 727.652 16.5905C726.775 17.4476 725.659 18.0313 724.443 18.2678C723.228 18.5043 721.968 18.3829 720.823 17.919C719.678 17.4552 718.699 16.6697 718.011 15.6619C717.322 14.654 716.955 13.4691 716.955 12.257C716.96 10.6333 717.622 9.07765 718.796 7.9295C719.97 6.78135 721.561 6.13393 723.221 6.12851V6.12851ZM723.221 35.6318C720.746 35.6208 718.31 35.0192 716.126 33.8794C713.942 32.7396 712.076 31.0958 710.688 29.0908C710.789 25.0051 719.043 22.756 723.221 22.756C727.398 22.756 735.653 25.0051 735.753 29.0908C734.364 31.0943 732.497 32.7369 730.314 33.8765C728.13 35.0162 725.696 35.6186 723.221 35.6318Z" fill="#3F3D56"/>
<path d="M963.427 223.691C959.295 223.691 955.257 224.889 951.822 227.133C948.387 229.378 945.71 232.569 944.129 236.301C942.548 240.034 942.134 244.142 942.94 248.104C943.746 252.067 945.736 255.707 948.657 258.564C951.578 261.421 955.3 263.367 959.352 264.155C963.403 264.943 967.603 264.539 971.42 262.992C975.237 261.446 978.499 258.828 980.794 255.468C983.089 252.109 984.314 248.159 984.314 244.119C984.298 238.706 982.092 233.519 978.178 229.692C974.265 225.864 968.961 223.707 963.427 223.691ZM963.427 229.819C964.666 229.819 965.877 230.179 966.908 230.852C967.938 231.525 968.741 232.483 969.216 233.602C969.69 234.722 969.814 235.954 969.572 237.143C969.331 238.332 968.734 239.424 967.857 240.281C966.981 241.138 965.865 241.722 964.649 241.958C963.433 242.195 962.174 242.074 961.029 241.61C959.883 241.146 958.905 240.36 958.216 239.353C957.528 238.345 957.16 237.16 957.16 235.948C957.166 234.324 957.828 232.768 959.002 231.62C960.176 230.472 961.766 229.825 963.427 229.819ZM963.427 259.322C960.951 259.311 958.516 258.71 956.332 257.57C954.148 256.43 952.281 254.787 950.894 252.781C950.994 248.696 959.249 246.447 963.427 246.447C967.604 246.447 975.859 248.696 975.959 252.781C974.57 254.785 972.703 256.428 970.52 257.567C968.336 258.707 965.902 259.309 963.427 259.322V259.322Z" fill="#3F3D56"/>
<path d="M1003.11 361.582C998.981 361.582 994.943 362.78 991.508 365.025C988.073 367.27 985.396 370.46 983.815 374.193C982.234 377.926 981.821 382.033 982.626 385.996C983.432 389.959 985.422 393.599 988.343 396.456C991.264 399.313 994.986 401.258 999.038 402.047C1003.09 402.835 1007.29 402.43 1011.11 400.884C1014.92 399.338 1018.18 396.719 1020.48 393.36C1022.77 390.001 1024 386.051 1024 382.011C1023.98 376.598 1021.78 371.411 1017.86 367.583C1013.95 363.755 1008.65 361.598 1003.11 361.582V361.582ZM1003.11 367.711C1004.35 367.711 1005.56 368.07 1006.59 368.744C1007.62 369.417 1008.43 370.374 1008.9 371.494C1009.38 372.614 1009.5 373.846 1009.26 375.035C1009.02 376.224 1008.42 377.316 1007.54 378.173C1006.67 379.03 1005.55 379.614 1004.34 379.85C1003.12 380.087 1001.86 379.965 1000.71 379.501C999.57 379.037 998.591 378.252 997.902 377.244C997.214 376.236 996.846 375.051 996.846 373.839C996.852 372.216 997.514 370.66 998.688 369.512C999.862 368.364 1001.45 367.716 1003.11 367.711V367.711ZM1003.11 397.214C1000.64 397.203 998.202 396.602 996.018 395.462C993.834 394.322 991.967 392.678 990.58 390.673C990.681 386.587 998.935 384.338 1003.11 384.338C1007.29 384.338 1015.54 386.587 1015.65 390.673C1014.26 392.677 1012.39 394.319 1010.21 395.459C1008.02 396.598 1005.59 397.201 1003.11 397.214V397.214Z" fill="#3F3D56"/>
<path d="M537.613 361.242L535.473 369.633C537.899 370.224 545.377 372.637 546.588 367.888C547.851 362.937 540.039 361.833 537.613 361.242Z" fill="#6C63FF"/>
<path d="M534.394 373.867L532.034 383.119C534.947 383.827 543.932 386.648 545.26 381.429C546.648 375.987 537.307 374.578 534.394 373.867Z" fill="#6C63FF"/>
<path d="M547.286 336.263C539.772 334.43 531.871 334.818 524.582 337.378C517.293 339.937 510.944 344.553 506.337 350.641C501.731 356.73 499.073 364.017 498.702 371.583C498.33 379.148 500.26 386.651 504.249 393.144C508.237 399.636 514.105 404.826 521.109 408.057C528.113 411.288 535.94 412.416 543.599 411.296C551.258 410.177 558.406 406.862 564.139 401.769C569.872 396.677 573.932 390.036 575.806 382.687C577.051 377.808 577.301 372.736 576.541 367.761C575.782 362.787 574.028 358.008 571.379 353.697C568.731 349.386 565.24 345.627 561.106 342.636C556.972 339.644 552.276 337.479 547.286 336.263V336.263ZM555.079 367.965C554.514 371.696 552.4 373.503 549.592 374.135C553.447 376.097 555.409 379.108 553.54 384.328C551.221 390.809 545.71 391.356 538.384 390L536.605 396.97L532.308 395.923L534.062 389.046C532.918 388.768 531.776 388.479 530.638 388.178L528.877 395.086L524.584 394.038L526.363 387.056C525.359 386.805 524.34 386.537 523.3 386.283L517.708 384.918L519.841 380.108C519.841 380.108 523.007 380.933 522.965 380.871C523.161 380.933 523.368 380.956 523.573 380.939C523.779 380.922 523.979 380.865 524.162 380.773C524.345 380.68 524.507 380.552 524.639 380.398C524.772 380.243 524.872 380.065 524.933 379.872L527.744 368.854C527.901 368.892 528.055 368.929 528.197 368.965C528.051 368.909 527.903 368.862 527.751 368.825L529.755 360.959C529.815 360.376 529.639 359.794 529.264 359.337C528.89 358.88 528.347 358.585 527.753 358.516C527.821 358.471 524.633 357.757 524.633 357.757L525.776 353.267L531.703 354.715L531.698 354.736C532.588 354.953 533.506 355.158 534.442 355.366L536.203 348.465L540.498 349.512L538.772 356.279C539.925 356.536 541.086 356.795 542.216 357.07L543.929 350.348L548.226 351.395L546.466 358.3C551.891 360.127 555.858 362.867 555.079 367.965V367.965Z" fill="#6C63FF"/>
<path d="M158.744 749C155.773 775.431 -0.236136 773.212 0.000268399 748.999C2.9719 722.57 158.981 724.789 158.744 749Z" fill="#E6E6E6"/>
<path d="M108.358 682.467L114.682 695.868L126.276 694.838L133.654 671.127L122.06 664.943L108.358 682.467Z" fill="#FFB8B8"/>
<path d="M68.5545 713.331L68.3049 722.67L86.2232 723.701V712.362L68.5545 713.331Z" fill="#FFB8B8"/>
<path d="M74.6286 543.301L78.8447 625.769L68.3049 715.454L99.9254 719.577L119.952 606.183L126.276 528.868L74.6286 543.301Z" fill="#2F2E41"/>
<path d="M25.09 513.405C25.09 513.405 12.4417 594.843 38.7923 621.646C65.143 648.448 100.98 695.868 100.98 695.868L126.277 664.942L61.9809 597.936L74.6292 552.578L126.277 528.868L117.844 472.171L41.9544 471.14L25.09 513.405Z" fill="#2F2E41"/>
<path d="M87.2774 324.758C100.084 324.758 110.466 314.604 110.466 302.079C110.466 289.554 100.084 279.4 87.2774 279.4C74.4707 279.4 64.0889 289.554 64.0889 302.079C64.0889 314.604 74.4707 324.758 87.2774 324.758Z" fill="#FFB8B8"/>
<path d="M67.2509 307.233C67.2509 307.233 66.1968 339.19 60.9267 343.313C55.6566 347.437 79.8992 364.962 79.8992 364.962L95.7096 340.221V317.542L67.2509 307.233Z" fill="#FFB8B8"/>
<path d="M77.791 350.529L64.9944 331.631L57.7642 341.252L47.2244 370.116L55.6566 482.479L105.195 483.51L111.52 354.653L95.7093 336.098L77.791 350.529Z" fill="#D0CDE1"/>
<path d="M131.547 357.745L139.979 356.715C139.979 356.715 142.087 357.745 143.141 364.962C144.195 372.178 156.843 436.091 156.843 436.091L139.979 514.436L121.006 489.696L132.601 446.4L121.006 403.103L131.547 357.745Z" fill="#2F2E41"/>
<path d="M24.0363 356.714H17.7116L1.90186 440.214L16.6578 505.159L31.4137 481.449L27.1976 455.677L29.3062 432.999L36.6847 419.597L24.0363 356.714Z" fill="#2F2E41"/>
<path d="M117.844 691.744C117.844 691.744 111.52 689.683 111.52 693.806C111.52 697.93 115.736 710.3 115.736 710.3C115.736 710.3 109.412 748.442 118.898 746.38C128.384 744.318 135.763 726.794 136.817 721.639C137.871 716.485 143.141 689.683 143.141 689.683C143.141 689.683 151.573 670.096 146.303 669.066C141.033 668.035 126.276 663.911 126.276 663.911C126.276 663.911 134.709 689.683 117.844 691.744Z" fill="#2F2E41"/>
<path d="M87.2775 723.701C87.2775 723.701 70.4131 713.393 67.251 721.639C65.1539 727.655 63.74 733.877 63.0349 740.195C63.0349 740.195 58.8187 753.596 75.6832 751.534C92.5476 749.473 90.4395 749.473 91.4936 743.287C92.5476 737.102 87.2775 723.701 87.2775 723.701Z" fill="#2F2E41"/>
<path d="M73.575 302.079L77.7911 301.048C77.7911 301.048 80.9532 283.523 88.3314 285.585C95.7096 287.647 114.682 289.709 114.682 281.462C114.682 273.215 96.7636 265.999 86.2234 267.03C75.6831 268.061 57.7646 271.153 58.8187 286.616C59.8727 302.079 66.6741 317.121 66.6741 317.121L67.2234 307.953L73.575 302.079Z" fill="#2F2E41"/>
<path d="M95.7093 362.9L77.791 350.53L95.7093 336.098L101.931 343.398L95.7093 362.9Z" fill="#D0CDE1"/>
<path d="M61.9803 361.869L77.791 350.529L65.1426 331.974L57.7642 341.252L61.9803 361.869Z" fill="#D0CDE1"/>
<path d="M138.925 356.715L105.196 343.313L97.2907 337.644L73.5751 440.214L57.7647 393.826L62.5079 334.551L18.7658 356.715L33.5222 426.813L35.6302 453.616L29.3061 475.264C29.3061 475.264 7.17151 490.727 14.5497 507.22C21.9279 523.714 30.3601 524.745 30.3601 524.745C30.3601 524.745 66.197 491.757 68.305 483.511C70.4131 475.264 73.5752 460.832 73.5752 460.832C73.5752 460.832 91.4936 526.807 112.574 525.776C133.655 524.745 133.655 503.097 133.655 503.097L128.384 480.418L119.952 456.708L124.168 417.535L138.925 356.715Z" fill="#2F2E41"/>
</g>
<defs>
<clipPath id="clip0_56_189">
<rect width="1024" height="768" fill="white"/>
</clipPath>
</defs>
</svg>
