<svg width="423" height="134" viewBox="0 0 423 134" fill="none" xmlns="http://www.w3.org/2000/svg">
<g clip-path="url(#clip0_26_48)">
<path d="M74.9168 91.0476H57.0081C57.0081 91.0476 56.8705 91.0562 57.0081 92.5357C57.2213 94.8298 61.0172 97 65.9624 97H65.9831C70.9056 97 74.684 94.8298 74.8963 92.5357C75.0331 91.0561 74.9168 91.0476 74.9168 91.0476Z" fill="#FFDEB7"/>
<path d="M83.9705 30.5703C80.5669 33.5525 80.9744 38.2042 84.8318 40.8105L93.942 46.9656C95.0484 33.8664 93.4643 25.7516 92.0945 24.4368C90.7911 24.8956 87.5829 27.4054 83.9705 30.5703Z" fill="#C3B9B1"/>
<path d="M39.8328 24.4368C38.4626 25.7516 36.8785 33.8664 37.9852 46.9656L47.0954 40.8105C50.9529 38.2044 51.3601 33.5526 47.9567 30.5703C44.3446 27.4054 41.1362 24.8956 39.8328 24.4368Z" fill="#C3B9B1"/>
<path d="M82.3639 88.6666C85.6253 82.7887 95.7821 83.9047 95.7821 83.9047V80.3333L104.728 85.0952V76.7619L109.2 77.9523C109.2 72.7138 106.244 57.0756 95.1167 45.6196C80.4185 30.4868 51.5089 30.4868 36.8108 45.6196C25.6839 57.0754 22.7272 72.7136 22.7272 77.9523L27.1999 76.7619V85.0952L36.1454 80.3333V83.9047C36.1454 83.9047 46.3022 82.7887 49.5636 88.6666L55.5273 87.4762H73.4182L82.3639 88.6666Z" fill="#FFEBD2"/>
<path d="M49.719 71.8443L62.982 86.2858V55.3334H29.5987C24.3324 64.6313 22.7274 74.1015 22.7274 77.9524L27.2001 76.7619V85.0953C31.491 77.5578 37.2634 73.1756 41.3905 70.8135C44.0659 69.2822 47.7722 69.7247 49.719 71.8443Z" fill="#C3B9B1"/>
<path d="M82.2085 71.8443L68.9454 86.2858V55.3334H102.329C107.595 64.6313 109.2 74.1015 109.2 77.9524L104.727 76.7619V85.0953C100.437 77.5578 94.6641 73.1756 90.537 70.8135C87.8613 69.2822 84.1551 69.7247 82.2085 71.8443Z" fill="#C3B9B1"/>
<path d="M73.4184 67.238H65.9638H58.5093C56.9252 74.0703 52.5456 79.1185 52.5456 86.8238C52.5456 91.5386 57.0183 93.355 60.0002 93.355C62.982 93.355 65.9638 92.238 65.9638 92.238C65.9638 92.238 68.9456 93.355 71.9275 93.355C74.9093 93.355 79.382 91.5386 79.382 86.8238C79.382 79.1185 75.0023 74.0703 73.4184 67.238Z" fill="#FFEBD2"/>
<path d="M96.8767 47.5462C97.7971 36.8598 97.1917 25.3526 94.1827 22.7406C93.4777 22.1285 92.7296 22 92.2271 22C89.2554 22 81.1791 29.2672 75.8875 34.3559C75.857 34.3476 75.8266 34.3394 75.7961 34.3312C69.4371 32.6144 62.4902 32.6144 56.1312 34.3312L56.0398 34.3559C50.7482 29.2672 42.6719 22 39.7001 22C39.1978 22 38.4494 22.1285 37.7447 22.7406C34.7358 25.3527 34.1302 36.8596 35.0507 47.5462C25.37 58.7653 22.7272 73.002 22.7272 77.9524C30.7028 63.396 42.1611 58.5733 47.1213 57.1081C48.519 56.6953 49.9938 56.5018 51.4864 56.5257C53.8417 56.5634 55.7687 58.053 56.0631 59.9192L60 84.8569H71.9273L75.864 59.9192C76.1586 58.053 78.0856 56.5632 80.4409 56.5257C81.9335 56.5018 83.4082 56.6952 84.806 57.1081C89.7658 58.5731 101.225 63.3958 109.2 77.9524C109.2 73.002 106.557 58.7653 96.8767 47.5462ZM39.8328 24.4368C41.1362 24.8956 44.3444 27.4054 47.9568 30.5703C49.3413 31.7834 50.0919 33.2725 50.2378 34.7882C50.3269 35.7131 49.7383 36.5825 48.7408 37.0581C44.4664 39.0959 40.8524 41.7053 37.8135 44.6379C37.0707 32.9084 38.5459 25.6719 39.8328 24.4368ZM83.9707 30.5703C87.5829 27.4051 90.7913 24.8956 92.0947 24.4368C93.3816 25.6719 94.8565 32.9084 94.1138 44.6379C91.0749 41.7052 87.4607 39.096 83.1865 37.0581C82.189 36.5825 81.6005 35.7131 81.6895 34.7882C81.8355 33.2728 82.586 31.7835 83.9707 30.5703Z" fill="#878791"/>
<path d="M51.0547 63.6667C52.7015 63.6667 54.0365 62.6007 54.0365 61.2857C54.0365 59.9708 52.7015 58.9048 51.0547 58.9048C49.4079 58.9048 48.0729 59.9708 48.0729 61.2857C48.0729 62.6007 49.4079 63.6667 51.0547 63.6667Z" fill="#464655"/>
<path d="M80.8729 63.6667C82.5198 63.6667 83.8548 62.6007 83.8548 61.2857C83.8548 59.9708 82.5198 58.9048 80.8729 58.9048C79.2261 58.9048 77.8911 59.9708 77.8911 61.2857C77.8911 62.6007 79.2261 63.6667 80.8729 63.6667Z" fill="#464655"/>
<path d="M71.9275 84.8572C71.9275 87.1585 69.2575 89.8571 65.9638 89.8571C62.6701 89.8571 60.0002 87.1583 60.0002 84.8572C60.0002 82.5559 62.6701 81.5238 65.9638 81.5238C69.2573 81.5238 71.9275 82.5559 71.9275 84.8572Z" fill="#464655"/>
</g>
<path d="M124.207 62.709H136.676V51.0566C137.74 51.0938 138.742 51.1556 139.682 51.2422C140.622 51.3288 141.457 51.4215 142.187 51.5205C143.028 51.6318 143.813 51.7493 144.543 51.873V56.623C144.061 56.4746 143.529 56.3385 142.947 56.2148C142.366 56.0788 141.76 55.9551 141.129 55.8438V74.2129C142.49 73.9902 143.628 73.7305 144.543 73.4336V78.1465C143.652 78.2949 142.836 78.4186 142.094 78.5176C141.352 78.6165 140.665 78.6969 140.034 78.7588C139.403 78.8206 138.81 78.8701 138.253 78.9072C137.709 78.9443 137.183 78.9753 136.676 79V67.1992H124.207V79C123.7 78.9753 123.168 78.9443 122.611 78.9072C122.067 78.8701 121.479 78.8206 120.849 78.7588C120.218 78.6969 119.531 78.6165 118.789 78.5176C118.047 78.4186 117.23 78.2949 116.34 78.1465V73.4336C116.822 73.582 117.342 73.7243 117.898 73.8604C118.467 73.984 119.086 74.1016 119.754 74.2129V55.8438C118.467 56.0664 117.329 56.3262 116.34 56.623V51.873C117.045 51.7493 117.824 51.6318 118.678 51.5205C119.395 51.4215 120.23 51.3288 121.183 51.2422C122.135 51.1556 123.143 51.0938 124.207 51.0566V62.709ZM172.004 71.4297C171.695 71.1576 171.311 70.8916 170.854 70.6318C170.396 70.3721 169.833 70.1432 169.165 69.9453C168.497 69.735 167.699 69.568 166.771 69.4443C165.856 69.3083 164.78 69.2402 163.543 69.2402C162.442 69.2402 161.397 69.265 160.407 69.3145C159.43 69.3516 158.57 69.4753 157.828 69.6855C157.086 69.8835 156.498 70.2051 156.065 70.6504C155.632 71.0957 155.416 71.7142 155.416 72.5059V74.8809C156.505 75.054 157.704 75.1963 159.016 75.3076C160.327 75.4189 161.786 75.4746 163.395 75.4746C164.681 75.4746 166.048 75.4313 167.495 75.3447C168.955 75.2458 170.458 75.054 172.004 74.7695V71.4297ZM163.654 57.8477C164.273 57.8477 165.021 57.8786 165.899 57.9404C166.778 58.0023 167.693 58.1136 168.646 58.2744C169.598 58.4229 170.538 58.6331 171.466 58.9053C172.406 59.165 173.247 59.5114 173.989 59.9443C174.744 60.3649 175.35 60.8721 175.808 61.4658C176.265 62.0596 176.494 62.7585 176.494 63.5625V77.9238C175.455 78.1341 174.28 78.3135 172.969 78.4619C171.843 78.598 170.501 78.7217 168.942 78.833C167.384 78.9443 165.646 79 163.729 79C161.824 79 159.795 78.9196 157.643 78.7588C155.503 78.598 153.264 78.3197 150.926 77.9238V71.2441C150.926 70.5267 151.093 69.902 151.427 69.3701C151.773 68.8258 152.243 68.362 152.837 67.9785C153.431 67.5951 154.13 67.2796 154.934 67.0322C155.738 66.7848 156.604 66.5869 157.531 66.4385C158.459 66.29 159.424 66.1911 160.426 66.1416C161.428 66.0798 162.43 66.0488 163.432 66.0488C164.953 66.0488 166.246 66.1478 167.31 66.3457C168.386 66.5312 169.276 66.7354 169.981 66.958C170.798 67.2301 171.472 67.5332 172.004 67.8672V64.8613C172.004 64.3542 171.88 63.9212 171.633 63.5625C171.385 63.1914 171.051 62.8822 170.631 62.6348C170.21 62.375 169.728 62.1709 169.184 62.0225C168.639 61.8617 168.07 61.738 167.477 61.6514C166.883 61.5648 166.277 61.5091 165.658 61.4844C165.052 61.4596 164.483 61.4473 163.951 61.4473C163.395 61.4473 162.801 61.4658 162.17 61.5029C161.539 61.5277 160.908 61.5833 160.277 61.6699C159.659 61.7565 159.059 61.8802 158.478 62.041C157.909 62.1895 157.401 62.3936 156.956 62.6533C156.511 62.9131 156.152 63.2285 155.88 63.5996C155.62 63.9583 155.49 64.3913 155.49 64.8984L150.889 63.7109C150.889 62.8822 151.093 62.1647 151.501 61.5586C151.909 60.9401 152.447 60.4144 153.115 59.9814C153.796 59.5485 154.575 59.196 155.453 58.9238C156.331 58.6393 157.241 58.4229 158.181 58.2744C159.133 58.1136 160.079 58.0023 161.02 57.9404C161.96 57.8786 162.838 57.8477 163.654 57.8477ZM198.797 57.8477C198.797 59.1341 198.754 60.4762 198.667 61.874C198.58 63.2594 198.413 64.6882 198.166 66.1602H193.676C193.787 65.7396 193.892 65.2819 193.991 64.7871C194.065 64.3665 194.133 63.8779 194.195 63.3213C194.27 62.7523 194.307 62.1523 194.307 61.5215C193.218 61.5462 192.315 61.6514 191.598 61.8369C190.893 62.0101 190.305 62.2204 189.835 62.4678C189.365 62.7028 188.981 62.944 188.685 63.1914C188.388 63.4388 188.122 63.6367 187.887 63.7852V79H183.137V63.6738C183.087 63.278 182.97 62.944 182.784 62.6719C182.611 62.3997 182.425 62.1771 182.228 62.0039C182.005 61.7936 181.751 61.6204 181.467 61.4844L183.434 57.8477C183.891 58.0085 184.343 58.2249 184.788 58.4971C185.172 58.7321 185.574 59.0352 185.994 59.4062C186.427 59.765 186.811 60.2103 187.145 60.7422C187.775 60.3092 188.357 59.9443 188.889 59.6475C189.421 59.3382 189.934 59.0785 190.429 58.8682C190.936 58.6579 191.455 58.4971 191.987 58.3857C192.532 58.262 193.125 58.1631 193.769 58.0889C194.424 58.0146 195.154 57.9652 195.958 57.9404C196.774 57.9033 197.721 57.8724 198.797 57.8477ZM222.324 57.6992C224.229 57.6992 225.949 57.86 227.482 58.1816C229.016 58.4909 230.321 58.9609 231.397 59.5918C232.474 60.2227 233.302 61.0081 233.884 61.9482C234.465 62.876 234.756 63.9583 234.756 65.1953V79H229.895V66.3086C229.895 65.2819 229.672 64.4469 229.227 63.8037C228.781 63.1481 228.194 62.6348 227.464 62.2637C226.734 61.8926 225.905 61.639 224.978 61.5029C224.05 61.3669 223.104 61.2988 222.139 61.2988V79H217.648V61.2988C216.844 61.2988 216.071 61.3669 215.329 61.5029C214.599 61.6266 213.907 61.7998 213.251 62.0225C212.595 62.2451 211.977 62.4987 211.396 62.7832C210.814 63.0677 210.276 63.3646 209.781 63.6738V79H204.92V63.6738C204.87 63.278 204.753 62.944 204.567 62.6719C204.394 62.3997 204.202 62.1771 203.992 62.0039C203.757 61.7936 203.497 61.6204 203.213 61.4844L205.291 57.8477C205.749 58.0085 206.2 58.2188 206.646 58.4785C207.029 58.7012 207.431 58.9919 207.852 59.3506C208.272 59.7093 208.643 60.1484 208.965 60.668C209.967 60.0618 210.932 59.5671 211.859 59.1836C212.787 58.7878 213.764 58.4847 214.791 58.2744C215.818 58.0518 216.937 57.9033 218.149 57.8291C219.362 57.7425 220.753 57.6992 222.324 57.6992ZM253.57 57.5137C254.609 57.5137 255.642 57.5632 256.669 57.6621C257.708 57.7611 258.704 57.9219 259.656 58.1445C260.609 58.3672 261.499 58.6455 262.328 58.9795C263.157 59.3135 263.874 59.7155 264.48 60.1855C265.099 60.6556 265.581 61.1999 265.928 61.8184C266.274 62.4245 266.447 63.1048 266.447 63.8594V73.4707C266.447 74.1387 266.274 74.751 265.928 75.3076C265.581 75.8643 265.099 76.3652 264.48 76.8105C263.874 77.2435 263.157 77.6208 262.328 77.9424C261.499 78.264 260.609 78.5299 259.656 78.7402C258.704 78.9505 257.708 79.1051 256.669 79.2041C255.63 79.3154 254.597 79.3711 253.57 79.3711C252.544 79.3711 251.511 79.3154 250.472 79.2041C249.445 79.1051 248.455 78.9505 247.503 78.7402C246.55 78.5299 245.66 78.264 244.831 77.9424C244.015 77.6208 243.297 77.2435 242.679 76.8105C242.073 76.3652 241.596 75.8704 241.25 75.3262C240.904 74.7695 240.73 74.151 240.73 73.4707V63.8594C240.73 63.1048 240.904 62.4245 241.25 61.8184C241.596 61.1999 242.073 60.6556 242.679 60.1855C243.297 59.7155 244.015 59.3135 244.831 58.9795C245.66 58.6455 246.55 58.3672 247.503 58.1445C248.455 57.9219 249.445 57.7611 250.472 57.6621C251.511 57.5632 252.544 57.5137 253.57 57.5137ZM245.443 72.2832C245.443 72.8522 245.678 73.347 246.148 73.7676C246.631 74.1758 247.256 74.5221 248.022 74.8066C248.789 75.0788 249.655 75.2829 250.62 75.4189C251.597 75.555 252.581 75.623 253.57 75.623C254.609 75.623 255.611 75.5488 256.576 75.4004C257.553 75.252 258.419 75.0417 259.174 74.7695C259.928 74.485 260.528 74.1387 260.974 73.7305C261.431 73.3099 261.66 72.8275 261.66 72.2832V64.5645C261.66 64.0326 261.431 63.5563 260.974 63.1357C260.528 62.7028 259.928 62.3441 259.174 62.0596C258.419 61.7627 257.553 61.54 256.576 61.3916C255.611 61.2308 254.609 61.1504 253.57 61.1504C252.581 61.1504 251.597 61.2246 250.62 61.373C249.655 61.5091 248.789 61.7194 248.022 62.0039C247.256 62.2884 246.631 62.6471 246.148 63.0801C245.678 63.5007 245.443 63.9954 245.443 64.5645V72.2832ZM271.605 63.6738C271.556 63.278 271.438 62.944 271.253 62.6719C271.08 62.3997 270.888 62.1771 270.678 62.0039C270.443 61.7936 270.183 61.6204 269.898 61.4844L271.977 57.8477C272.434 58.0085 272.892 58.2249 273.35 58.4971C273.733 58.7321 274.135 59.0352 274.556 59.4062C274.989 59.765 275.366 60.2103 275.688 60.7422C276.306 60.3464 276.937 59.9753 277.58 59.6289C278.236 59.2702 278.916 58.9609 279.621 58.7012C280.339 58.4414 281.087 58.2373 281.866 58.0889C282.658 57.9281 283.505 57.8477 284.408 57.8477C286.313 57.8477 287.946 58.0085 289.307 58.3301C290.68 58.6393 291.799 59.1094 292.665 59.7402C293.543 60.3587 294.187 61.1318 294.595 62.0596C295.003 62.9873 295.207 64.0697 295.207 65.3066V79H290.346V66.457C290.346 65.7643 290.253 65.1706 290.067 64.6758C289.882 64.1686 289.628 63.7419 289.307 63.3955C288.997 63.0368 288.632 62.7461 288.212 62.5234C287.791 62.3008 287.352 62.1338 286.895 62.0225C286.449 61.8988 285.992 61.8184 285.521 61.7812C285.051 61.7318 284.606 61.707 284.186 61.707C283.394 61.707 282.639 61.7627 281.922 61.874C281.204 61.9854 280.524 62.14 279.881 62.3379C279.238 62.5234 278.632 62.7461 278.062 63.0059C277.493 63.2656 276.962 63.5378 276.467 63.8223V79H271.605V63.6738ZM305.338 70.3906C305.338 71.0833 305.431 71.6833 305.616 72.1904C305.802 72.6852 306.055 73.112 306.377 73.4707C306.699 73.8171 307.063 74.1016 307.472 74.3242C307.892 74.5469 308.331 74.7201 308.789 74.8438C309.247 74.9551 309.711 75.0355 310.181 75.085C310.651 75.1221 311.102 75.1406 311.535 75.1406C313.106 75.1406 314.535 74.9365 315.821 74.5283C317.108 74.1201 318.252 73.6191 319.254 73.0254V57.8477L324.041 58.2188V79.9277C324.041 80.806 323.855 81.6224 323.484 82.377C323.113 83.1315 322.575 83.7809 321.87 84.3252C321.165 84.8818 320.299 85.3148 319.272 85.624C318.246 85.9333 317.077 86.0879 315.766 86.0879V82.8594C316.26 82.8594 316.718 82.8099 317.139 82.7109C317.559 82.612 317.924 82.4574 318.233 82.2471C318.555 82.0492 318.802 81.7956 318.976 81.4863C319.161 81.1895 319.254 80.8431 319.254 80.4473V76.5508C318.673 76.9095 318.079 77.2373 317.473 77.5342C316.879 77.8311 316.254 78.0908 315.599 78.3135C314.943 78.5238 314.257 78.6908 313.539 78.8145C312.822 78.9382 312.067 79 311.275 79C309.358 79 307.719 78.8454 306.358 78.5361C304.998 78.2145 303.878 77.7445 303 77.126C302.134 76.4951 301.497 75.7158 301.089 74.7881C300.681 73.8604 300.477 72.778 300.477 71.541V58.2188L305.338 57.8477V70.3906ZM343.041 57.8477C343.672 57.8477 344.433 57.8786 345.323 57.9404C346.214 58.0023 347.135 58.1136 348.088 58.2744C349.053 58.4229 350.005 58.6393 350.945 58.9238C351.885 59.196 352.727 59.5485 353.469 59.9814C354.223 60.4144 354.829 60.9401 355.287 61.5586C355.757 62.1647 355.992 62.8822 355.992 63.7109V69.9824H334.729V74.7324C336.225 74.9427 337.666 75.0911 339.052 75.1777C340.437 75.252 341.767 75.2891 343.041 75.2891C344.983 75.2891 346.74 75.2148 348.311 75.0664C349.894 74.918 351.261 74.751 352.411 74.5654C353.735 74.3551 354.928 74.1139 355.992 73.8418V77.9609C353.642 78.332 351.372 78.598 349.183 78.7588C347.006 78.9196 344.958 79 343.041 79C341.111 79 339.361 78.9505 337.79 78.8516C336.219 78.7402 334.871 78.6165 333.745 78.4805C332.434 78.332 331.253 78.1589 330.201 77.9609V63.7109C330.201 62.8822 330.405 62.1647 330.813 61.5586C331.222 60.9401 331.766 60.4144 332.446 59.9814C333.127 59.5485 333.906 59.196 334.784 58.9238C335.675 58.6393 336.596 58.4229 337.549 58.2744C338.501 58.1136 339.448 58.0023 340.388 57.9404C341.34 57.8786 342.225 57.8477 343.041 57.8477ZM334.729 67.0137H351.391V64.8613C351.391 64.3542 351.267 63.9212 351.02 63.5625C350.772 63.1914 350.438 62.8822 350.018 62.6348C349.609 62.3874 349.127 62.1895 348.57 62.041C348.026 61.8802 347.457 61.7627 346.863 61.6885C346.27 61.6019 345.67 61.5462 345.063 61.5215C344.47 61.4967 343.907 61.4844 343.375 61.4844C342.818 61.4844 342.218 61.4967 341.575 61.5215C340.944 61.5462 340.307 61.6019 339.664 61.6885C339.021 61.7751 338.402 61.8988 337.809 62.0596C337.215 62.208 336.689 62.4121 336.231 62.6719C335.774 62.9193 335.409 63.2285 335.137 63.5996C334.865 63.9583 334.729 64.3913 334.729 64.8984V67.0137ZM367.756 57.5879H372.469V60.7051H367.756V79H363.34V60.7051H359.852V57.5879H363.34V51.1309H367.756V57.5879ZM389.984 57.8477C391.889 57.8477 393.522 58.0085 394.883 58.3301C396.243 58.6393 397.357 59.1094 398.223 59.7402C399.101 60.3587 399.738 61.1318 400.134 62.0596C400.542 62.9873 400.746 64.0697 400.746 65.3066V79H395.885V66.457C395.885 65.7643 395.792 65.1706 395.606 64.6758C395.421 64.1686 395.167 63.7419 394.846 63.3955C394.536 63.0368 394.172 62.7461 393.751 62.5234C393.33 62.3008 392.891 62.1338 392.434 62.0225C391.988 61.8988 391.531 61.8184 391.061 61.7812C390.59 61.7318 390.145 61.707 389.725 61.707C388.933 61.707 388.178 61.7627 387.461 61.874C386.743 61.9854 386.063 62.14 385.42 62.3379C384.777 62.5234 384.171 62.7461 383.602 63.0059C383.033 63.2656 382.501 63.5378 382.006 63.8223V79H377.145V50.7598H382.006V60.2969C382.575 59.9505 383.156 59.6289 383.75 59.332C384.344 59.0352 384.962 58.7754 385.605 58.5527C386.261 58.3301 386.948 58.1569 387.665 58.0332C388.395 57.9095 389.168 57.8477 389.984 57.8477Z" fill="#7C83FD"/>
<defs>
<clipPath id="clip0_26_48">
<rect width="93.9274" height="75" fill="white" transform="translate(19 22)"/>
</clipPath>
</defs>
</svg>
